<svg width="17" height="18" viewBox="0 0 17 18" fill="none" xmlns="http://www.w3.org/2000/svg">
<path d="M16.9963 15.5595L15.9506 3.95337C15.9282 3.69571 15.7078 3.50061 15.4501 3.50061H12.1745C12.1446 1.56442 10.5386 0 8.56668 0C6.59473 0 4.98878 1.56442 4.9589 3.50061H1.68323C1.42179 3.50061 1.20518 3.69571 1.18277 3.95337L0.137036 15.5595C0.137036 15.5742 0.133301 15.589 0.133301 15.6037C0.133301 16.9252 1.36204 18 2.87462 18H14.2587C15.7713 18 17.0001 16.9252 17.0001 15.6037C17.0001 15.589 17.0001 15.5742 16.9963 15.5595ZM8.56668 0.993865C9.98216 0.993865 11.1362 2.11288 11.1661 3.50061H5.96729C5.99717 2.11288 7.15121 0.993865 8.56668 0.993865ZM14.2587 17.0061H2.87462C1.92599 17.0061 1.15663 16.3877 1.14169 15.6258L2.1426 4.49816H4.95517V6.00736C4.95517 6.28344 5.17925 6.50429 5.45936 6.50429C5.73947 6.50429 5.96355 6.28344 5.96355 6.00736V4.49816H11.1661V6.00736C11.1661 6.28344 11.3902 6.50429 11.6703 6.50429C11.9504 6.50429 12.1745 6.28344 12.1745 6.00736V4.49816H14.987L15.9917 15.6258C15.9767 16.3877 15.2036 17.0061 14.2587 17.0061Z" fill="#1A1817"/>
</svg>
