<svg width="11" height="11" viewBox="0 0 11 11" fill="none" xmlns="http://www.w3.org/2000/svg">
<path d="M5.35962 7.64038V3.77638H6.15162V7.64038H5.35962ZM5.75562 3.22438C5.59562 3.22438 5.47562 3.18438 5.39562 3.10438C5.31562 3.02438 5.27562 2.90838 5.27562 2.75638C5.27562 2.59638 5.31562 2.48038 5.39562 2.40838C5.47562 2.32838 5.59562 2.28838 5.75562 2.28838C5.88362 2.28838 5.99162 2.32838 6.07962 2.40838C6.17562 2.48038 6.22362 2.59638 6.22362 2.75638C6.22362 2.91638 6.17562 3.03638 6.07962 3.11638C5.99162 3.18838 5.88362 3.22438 5.75562 3.22438ZM5.75562 10.1964C5.07562 10.1964 4.43562 10.0684 3.83562 9.81238C3.23562 9.55638 2.70762 9.20438 2.25162 8.75638C1.80362 8.30038 1.45162 7.77238 1.19562 7.17238C0.939615 6.57238 0.811615 5.93238 0.811615 5.25238C0.811615 4.56438 0.939615 3.92438 1.19562 3.33238C1.45162 2.73238 1.80362 2.20838 2.25162 1.76038C2.70762 1.30438 3.23562 0.948376 3.83562 0.692376C4.43562 0.436376 5.07562 0.308376 5.75562 0.308376C6.44362 0.308376 7.08362 0.436376 7.67562 0.692376C8.27562 0.948376 8.79962 1.30438 9.24762 1.76038C9.70362 2.20838 10.0596 2.73238 10.3156 3.33238C10.5716 3.92438 10.6996 4.56438 10.6996 5.25238C10.6996 5.93238 10.5716 6.57238 10.3156 7.17238C10.0596 7.77238 9.70362 8.30038 9.24762 8.75638C8.79962 9.20438 8.27562 9.55638 7.67562 9.81238C7.08362 10.0684 6.44362 10.1964 5.75562 10.1964ZM5.75562 9.52438C6.34762 9.52438 6.89962 9.41638 7.41162 9.20038C7.93162 8.97638 8.38762 8.66838 8.77962 8.27638C9.17162 7.88438 9.47562 7.43238 9.69162 6.92038C9.91562 6.40038 10.0276 5.84438 10.0276 5.25238C10.0276 4.66038 9.91562 4.10838 9.69162 3.59638C9.47562 3.07638 9.17162 2.62038 8.77962 2.22838C8.38762 1.83638 7.93162 1.53238 7.41162 1.31638C6.89962 1.09238 6.34762 0.980376 5.75562 0.980376C5.16362 0.980376 4.60762 1.09238 4.08762 1.31638C3.57562 1.53238 3.12362 1.83638 2.73162 2.22838C2.33962 2.62038 2.03162 3.07638 1.80762 3.59638C1.59162 4.10838 1.48362 4.66038 1.48362 5.25238C1.48362 5.84438 1.59162 6.40038 1.80762 6.92038C2.03162 7.43238 2.33962 7.88438 2.73162 8.27638C3.12362 8.66838 3.57562 8.97638 4.08762 9.20038C4.60762 9.41638 5.16362 9.52438 5.75562 9.52438Z" fill="#666666"/>
</svg>
