<svg width="25" height="24" viewBox="0 0 25 24" fill="none" xmlns="http://www.w3.org/2000/svg">
<path fill-rule="evenodd" clip-rule="evenodd" d="M11.2454 17.114C14.5591 17.114 17.2454 14.4277 17.2454 11.114C17.2454 7.80032 14.5591 5.11403 11.2454 5.11403C7.93165 5.11403 5.24536 7.80032 5.24536 11.114C5.24536 14.4277 7.93165 17.114 11.2454 17.114ZM11.2454 18.114C15.1114 18.114 18.2454 14.98 18.2454 11.114C18.2454 7.24804 15.1114 4.11403 11.2454 4.11403C7.37937 4.11403 4.24536 7.24804 4.24536 11.114C4.24536 14.98 7.37937 18.114 11.2454 18.114Z" fill="#1A1817"/>
<path fill-rule="evenodd" clip-rule="evenodd" d="M15.632 15.4969C15.8273 15.3016 16.1439 15.3016 16.3391 15.4969L19.8747 19.0324C20.0699 19.2277 20.0699 19.5443 19.8747 19.7395C19.6794 19.9348 19.3628 19.9348 19.1676 19.7395L15.632 16.204C15.4368 16.0087 15.4368 15.6921 15.632 15.4969Z" fill="#1A1817"/>
</svg>
