<svg width="73" height="15" viewBox="0 0 73 15" fill="none" xmlns="http://www.w3.org/2000/svg">
<path fill-rule="evenodd" clip-rule="evenodd" d="M71.6774 7.19089L69.4879 8.44677L67.2673 9.72053C65.7954 10.5647 63.9607 9.50252 63.9607 7.80611V7.4697C63.9607 7.13443 63.5981 6.92454 63.3073 7.09137L61.2777 8.25549L59.2543 9.41613C58.9621 9.58375 58.9621 10.0052 59.2543 10.1728L61.2777 11.3334L63.3073 12.4975C63.5981 12.6644 63.9607 12.4545 63.9607 12.1192V11.4414C63.9607 11.112 64.317 10.9058 64.6028 11.0697L65.633 11.6606C65.7688 11.7384 65.8525 11.8829 65.8525 12.0394V12.326C65.8525 14.0224 64.0178 15.0846 62.5459 14.2404L60.3253 12.9666L58.1358 11.7107C56.657 10.8625 56.657 8.73005 58.1358 7.88186L60.3253 6.62598L62.546 5.35223C64.0178 4.50797 65.8525 5.57024 65.8525 7.26665V7.60301C65.8524 7.93828 66.2151 8.14822 66.5059 7.98138L68.5355 6.81727L70.5589 5.65662C70.8511 5.48901 70.8511 5.06758 70.5589 4.89993L68.5355 3.73932L66.5059 2.57521C66.2151 2.40833 65.8525 2.61826 65.8525 2.95353V3.63064C65.8525 3.96002 65.4962 4.16631 65.2104 4.00239L64.1801 3.41144C64.0444 3.33359 63.9607 3.18915 63.9607 3.03271V2.74684C63.9607 1.05038 65.7954 -0.0118464 67.2673 0.832369L69.4879 2.10613L71.6774 3.362C73.1151 4.21023 73.1151 6.34266 71.6774 7.19089ZM50.032 14.3778L51.9507 10.4181L48.9339 3.78128H51.1198L53.0579 8.22561L55.1756 3.78128H57.2988L52.1629 14.3778H50.032ZM46.3351 10.3278C45.7781 11.005 44.9501 11.4265 43.9567 11.4265C41.8943 11.4265 40.3288 9.77102 40.3288 7.54363C40.3288 5.33147 41.9545 3.64583 44.0018 3.64583C44.9651 3.64583 45.7781 4.06734 46.3351 4.72949V3.78133H48.1868V11.306H46.3351V10.3278ZM44.2727 5.39163C43.1438 5.39163 42.2255 6.29459 42.2255 7.54363C42.2255 8.77766 43.1438 9.69576 44.2727 9.69576C45.4019 9.69576 46.32 8.80785 46.32 7.54363C46.32 6.27963 45.4019 5.39163 44.2727 5.39163ZM35.9751 11.4265C35.0266 11.4265 34.2439 11.0502 33.7019 10.4182V14.3778H31.7901V3.78138H33.6417V4.75945C34.1987 4.06725 35.0266 3.64583 36.0202 3.64583C38.0524 3.64583 39.6481 5.31638 39.6481 7.52867C39.6481 9.74082 38.0223 11.4265 35.9751 11.4265ZM35.7041 5.39154C34.575 5.39154 33.6567 6.29464 33.6567 7.54363C33.6567 8.77771 34.575 9.69576 35.7041 9.69576C36.833 9.69576 37.7513 8.7627 37.7513 7.54363C37.7513 6.32469 36.833 5.39154 35.7041 5.39154ZM29.5559 5.39168C28.9164 5.47833 28.5115 6.06545 28.5135 6.85134V11.306H26.6018V3.78128H28.4533V4.51877C28.4533 4.51877 28.9244 3.64587 30.0791 3.64587C30.5728 3.64587 30.8922 3.81572 30.8922 3.81572V5.73506C30.8922 5.73506 30.1955 5.30493 29.5559 5.39168ZM19.8776 8.0404C20.0131 9.15389 20.8109 9.78607 21.8196 9.78607C22.6174 9.78607 23.2347 9.40971 23.5959 8.80785H25.5378C25.0863 10.4032 23.6561 11.4264 21.7745 11.4264C19.5014 11.4264 17.9056 9.83122 17.9056 7.55882C17.9056 5.28628 19.5917 3.64583 21.8196 3.64583C24.0626 3.64583 25.6884 5.30128 25.6884 7.55882C25.6884 7.72428 25.6733 7.88989 25.6432 8.0404H19.8776ZM21.7894 5.30128C20.8562 5.30128 20.0884 5.87317 19.8927 6.86639H23.6561C23.5206 5.88826 22.7227 5.30128 21.7894 5.30128ZM14.1272 9.10873V5.42169H11.6837V11.306H9.78683V5.42169H8.73309V3.78133H9.78683V2.77662C9.78683 1.21147 10.5245 0.699739 12.0901 0.699739H13.0035V2.15953H12.5869C11.9245 2.15953 11.6837 2.40048 11.6837 3.03253V3.78133H14.1272V1.94545H16.024V3.78133H17.2131V5.42169H16.024V8.7627C16.024 9.39474 16.2045 9.63547 16.8519 9.63547H17.2282V11.306H16.2497C14.7142 11.306 14.1272 10.6439 14.1272 9.10873ZM6.00638 10.3278C5.44927 11.005 4.62129 11.4265 3.62794 11.4265C1.56547 11.4265 0 9.77102 0 7.54363C0 5.33147 1.62572 3.64583 3.673 3.64583C4.63643 3.64583 5.44927 4.06734 6.00638 4.72949V3.78133H7.8579V11.306H6.00638V10.3278ZM3.944 5.39163C2.81496 5.39163 1.89672 6.29459 1.89672 7.54363C1.89672 8.77766 2.81496 9.69576 3.944 9.69576C5.07304 9.69576 5.99128 8.80785 5.99128 7.54363C5.99128 6.27963 5.07304 5.39163 3.944 5.39163Z" fill="#1A1817"/>
</svg>
