<svg width="45" height="11" viewBox="0 0 45 11" fill="none" xmlns="http://www.w3.org/2000/svg">
<path d="M7.88328 0.536377H5.67755C5.67755 2.34647 4.84669 3.9983 3.40257 5.08633L2.53215 5.73915L5.91494 10.3484H8.69436L5.57864 6.10512C7.05242 4.64122 7.88328 2.66298 7.88328 0.536377Z" fill="#1A1817"/>
<path d="M2.25519 0.536377H0V10.3484H2.25519V0.536377Z" fill="#1A1817"/>
<path d="M11.4738 0.536377H9.34718V10.3484H11.4738V0.536377Z" fill="#1A1817"/>
<path d="M30.1286 3.37515C29.3175 3.37515 28.546 3.62243 28.0317 4.32471V3.56308H26.0138V10.3484H28.0613V6.78761C28.0613 5.75893 28.7537 5.25448 29.5846 5.25448C30.4748 5.25448 30.9891 5.7886 30.9891 6.77772V10.3583H33.0168V6.03588C33.0168 4.45329 31.7606 3.37515 30.1286 3.37515Z" fill="#1A1817"/>
<path d="M17.9031 3.56308V3.9983C17.3294 3.60265 16.637 3.37515 15.8853 3.37515C13.907 3.37515 12.3046 4.97753 12.3046 6.95576C12.3046 8.934 13.907 10.5364 15.8853 10.5364C16.637 10.5364 17.3294 10.3089 17.9031 9.91323V10.3484H19.9308V3.56308H17.9031ZM16.0534 8.69662C15.0346 8.69662 14.2136 7.91521 14.2136 6.95576C14.2136 5.99632 15.0346 5.21491 16.0534 5.21491C17.0722 5.21491 17.8932 5.99632 17.8932 6.95576C17.8932 7.91521 17.0722 8.69662 16.0534 8.69662Z" fill="#1A1817"/>
<path d="M23.0762 4.4434V3.56308H20.999V10.3484H23.0861V7.18326C23.0861 6.11501 24.2433 5.54132 25.0445 5.54132C25.0544 5.54132 25.0643 5.54132 25.0643 5.54132V3.56308C24.2433 3.56308 23.4817 3.91917 23.0762 4.4434Z" fill="#1A1817"/>
<path d="M39.3274 3.56308V3.9983C38.7537 3.60265 38.0613 3.37515 37.3096 3.37515C35.3314 3.37515 33.729 4.97753 33.729 6.95576C33.729 8.934 35.3314 10.5364 37.3096 10.5364C38.0613 10.5364 38.7537 10.3089 39.3274 9.91323V10.3484H41.3551V3.56308H39.3274ZM37.4777 8.69662C36.459 8.69662 35.638 7.91521 35.638 6.95576C35.638 5.99632 36.459 5.21491 37.4777 5.21491C38.4965 5.21491 39.3175 5.99632 39.3175 6.95576C39.3274 7.91521 38.4965 8.69662 37.4777 8.69662Z" fill="#1A1817"/>
<path d="M43.5213 7.94488C42.819 7.94488 42.2453 8.51857 42.2453 9.22085C42.2453 9.92312 42.819 10.4968 43.5213 10.4968C44.2235 10.4968 44.7972 9.92312 44.7972 9.22085C44.7972 8.50868 44.2235 7.94488 43.5213 7.94488Z" fill="#1A1817"/>
</svg>
